#!OML:ASF F:\VICON\USERDATA\INSTALL\SteveWalk\SteveWalk.ASF
:FULLY-SPECIFIED
:DEGREES

269
root -0.206109 16.3204 12.4394 16.8606 2.89054 -0.821939
lowerback -15.1225 -0.187365 1.54682
upperback -5.1935 -0.549231 2.05026
thorax 2.98358 -0.264949 1.17892
lowerneck -3.20688 0.00488754 0.189684
upperneck 8.97285 0.247299 -2.84568
head 3.46346 0.0178788 -0.955364
rclavicle -7.36124e-016 7.95139e-016
rhumerus -28.2725 -13.6025 -80.8083
rradius 23.7897
rwrist 1.40671
rhand -18.2137 -32.6129
rfingers 7.12502
rthumb 8.06411 -62.439
lclavicle -7.36124e-016 7.95139e-016
lhumerus -41.3127 22.3966 73.0849
lradius 14.0923
lwrist -24.171
lhand -16.0726 -16.0855
lfingers 7.12502
lthumb 10.1301 13.6506
rfemur -25.3614 -3.78921 25.0497
rtibia 36.1965
rfoot -26.9805 2.29177
rtoes -12.1314
lfemur -46.1457 3.96616 -21.585
ltibia 61.504
lfoot -10.6927 7.20665
ltoes -1.28594
270
root -0.193965 16.323 12.6539 17.0805 2.86994 -1.02673
lowerback -15.4067 -0.0930034 1.81282
upperback -5.2353 -0.469286 2.0064
thorax 3.08767 -0.226197 0.996425
lowerneck -3.11631 0.0334784 0.300416
upperneck 8.89512 0.275863 -2.84236
head 3.41996 0.0372379 -0.971532
rclavicle 3.50669e-015 -2.14687e-014
rhumerus -26.9784 -11.4869 -81.802
rradius 25.0912
rwrist -0.699353
rhand -17.9444 -32.2909
rfingers 7.12502
rthumb 8.32396 -62.1069
lclavicle 3.50669e-015 -2.14687e-014
lhumerus -43.6447 26.4127 68.767
lradius 12.7348
lwrist -30.7286
lhand -15.0006 -16.0654
lfingers 7.12502
lthumb 11.1642 13.6176
rfemur -24.5261 -4.51979 25.3039
rtibia 35.7097
rfoot -27.4767 3.21087
rtoes -11.1309
lfemur -46.9464 3.96891 -21.5941
ltibia 58.9961
lfoot -10.8239 7.85379
ltoes -1.76969
271
root -0.186133 16.3254 12.8548 17.0947 2.63142 -0.885108
lowerback -15.345 -0.0125987 1.63909
upperback -5.18944 -0.332067 1.88191
thorax 3.10293 -0.15812 0.988132
lowerneck -3.226 0.0361535 0.342272
upperneck 8.91759 0.271661 -2.77159
head 3.44852 0.0383561 -0.956468
rclavicle -2.21148e-015 1.59028e-014
rhumerus -25.5078 -9.36506 -82.6561
rradius 26.2488
rwrist -2.60996
rhand -17.6132 -32.252
rfingers 7.12502
rthumb 8.64367 -62.0551
lclavicle -2.21148e-015 1.59028e-014
lhumerus -46.2832 29.8261 64.4783
lradius 11.921
lwrist -36.5325
lhand -13.625 -15.4784
lfingers 7.12502
lthumb 12.4907 14.1283
rfemur -23.4147 -4.97186 25.0854
rtibia 35.096
rfoot -27.7882 3.88875
rtoes -10.3495
lfemur -47.3519 3.96095 -21.9163
ltibia 56.2145
lfoot -11.1536 8.47985
ltoes -1.18248
272
root -0.181657 16.3232 13.0629 17.1128 2.13747 -0.87222
lowerback -15.4057 0.133144 1.469
upperback -5.05226 -0.11805 1.81892
thorax 3.27906 -0.0512982 1.05662
lowerneck -3.49178 0.0275739 0.276932
upperneck 8.94453 0.253589 -2.62686
head 3.50769 0.0308406 -0.899442
rclavicle 1.8737e-015 -9.54166e-015
rhumerus -23.9455 -7.55632 -83.3179
rradius 27.3958
rwrist -4.08917
rhand -17.5628 -31.9101
rfingers 7.12502
rthumb 8.69225 -61.7111
lclavicle 1.8737e-015 -9.54166e-015
lhumerus -49.3345 33.285 59.6688
lradius 11.238
lwrist -42.2475
lhand -11.2997 -13.6169
lfingers 7.12502
lthumb 14.7318 15.8396
rfemur -22.3232 -5.16985 24.9417
rtibia 34.4426
rfoot -27.9945 4.28135
rtoes -10.4123
lfemur -47.6457 4.1426 -22.0668
ltibia 53.2494
lfoot -11.4686 9.06417
ltoes -2.04524
273
root -0.180711 16.3217 13.2809 17.1687 1.59776 -1.04748
lowerback -15.5952 0.295652 1.4069
upperback -4.97266 0.0968804 1.83415
thorax 3.46238 0.0556272 1.14808
lowerneck -3.44628 0.0252741 0.186969
upperneck 8.83514 0.244766 -2.52317
head 3.45967 0.0286635 -0.848766
rclavicle 4.10692e-015 1.27222e-014
rhumerus -22.7141 -5.81574 -83.7931
rradius 28.6907
rwrist -5.478
rhand -17.4786 -31.3021
rfingers 7.12502
rthumb 8.77355 -61.0998
lclavicle 4.10692e-015 1.27222e-014
lhumerus -53.0348 36.1513 54.3906
lradius 10.6272
lwrist -47.6667
lhand -10.9038 -13.9461
lfingers 7.12502
lthumb 15.1131 15.4821
rfemur -21.2179 -5.13774 24.9874
rtibia 33.7807
rfoot -28.2503 4.27563
rtoes -11.7398
lfemur -47.8821 4.41127 -21.9573
ltibia 50.1217
lfoot -11.6241 9.48549
ltoes -4.31193
274
root -0.166461 16.3182 13.4888 17.2639 1.47801 -1.16035
lowerback -15.6207 0.367009 1.52838
upperback -4.96482 0.172516 1.80929
thorax 3.48384 0.0927888 1.06729
lowerneck -3.46327 0.0412282 0.153216
upperneck 8.73734 0.260538 -2.45535
head 3.42866 0.0386457 -0.819241
rclavicle 5.24916e-016 1.35174e-014
rhumerus -21.3675 -4.13607 -84.133
rradius 29.7897
rwrist -6.7433
rhand -17.3311 -31.4533
rfingers 7.12502
rthumb 8.91589 -61.2449
lclavicle 5.24916e-016 1.35174e-014
lhumerus -57.4571 38.838 48.1589
lradius 10.0164
lwrist -53.692
lhand -10.9756 -14.944
lfingers 7.12502
lthumb 15.044 14.4894
rfemur -20.0563 -5.83464 25.0011
rtibia 33.0122
rfoot -28.6031 5.00943
rtoes -12.115
lfemur -48.0432 4.23032 -21.803
ltibia 46.8972
lfoot -11.7187 9.56828
ltoes -3.04724
275
root -0.156494 16.3102 13.6984 17.3889 1.24939 -1.2033
lowerback -15.68 0.479718 1.48628
upperback -4.9356 0.326882 1.76695
thorax 3.54521 0.169236 1.07564
lowerneck -3.55682 0.0464766 0.0236348
upperneck 8.59435 0.257906 -2.26868
head 3.39547 0.0408861 -0.734699
rclavicle -4.71492e-015 1.63003e-014
rhumerus -19.9606 -2.81729 -84.2848
rradius 30.8363
rwrist -7.55848
rhand -17.3203 -31.6122
rfingers 7.12502
rthumb 8.92629 -61.4034
lclavicle -4.71492e-015 1.63003e-014
lhumerus -58.8105 38.7997 46.8306
lradius 9.56015
lwrist -54.8103
lhand -10.6548 -14.5021
lfingers 7.12502
lthumb 15.353 14.9079
rfemur -18.9251 -6.3373 24.8899
rtibia 32.0869
rfoot -28.5094 6.31138
rtoes -10.2376
lfemur -48.1619 3.99877 -21.6076
ltibia 43.6298
lfoot -11.6872 9.54122
ltoes -0.189282
276
root -0.144432 16.2908 13.9118 17.4439 0.884735 -1.09857
lowerback -15.7773 0.591872 1.28045
upperback -4.80541 0.503103 1.70905
thorax 3.7322 0.256514 1.16607
lowerneck -3.78182 0.0808273 -0.193392
upperneck 8.41099 0.300159 -2.06891
head 3.37395 0.0627162 -0.62911
rclavicle 1.4971e-015 -2.62396e-014
rhumerus -18.6047 -1.64517 -84.3093
rradius 32.0264
rwrist -8.28761
rhand -16.7673 -32.6464
rfingers 7.12502
rthumb 9.45988 -62.414
lclavicle 1.4971e-015 -2.62396e-014
lhumerus -60.229 38.7306 45.4701
lradius 9.47271
lwrist -55.6274
lhand -9.78835 -13.5698
lfingers 7.12502
lthumb 16.1874 15.7743
rfemur -17.558 -7.03565 24.6099
rtibia 31.0374
rfoot -28.7019 6.65153
rtoes -11.7499
lfemur -48.2597 3.86823 -21.6359
ltibia 40.3537
lfoot -11.2943 9.99655
ltoes -2.86118
277
root -0.134459 16.2567 14.1294 17.3804 0.272844 -0.8717
lowerback -15.6978 0.721575 0.889862
upperback -4.75545 0.739311 1.60854
thorax 3.73654 0.372587 1.32453
lowerneck -3.93383 0.118487 -0.230782
upperneck 8.43571 0.35134 -2.02345
head 3.41203 0.0876515 -0.606084
rclavicle -2.62147e-015 -5.1684e-015
rhumerus -17.4305 -0.302057 -84.3322
rradius 33.0887
rwrist -9.32495
rhand -16.068 -33.9739
rfingers 7.12502
rthumb 10.1346 -63.7098
lclavicle -2.62147e-015 -5.1684e-015
lhumerus -62.0057 38.4009 43.8125
lradius 9.59109
lwrist -56.5172
lhand -9.07565 -12.719
lfingers 7.12502
lthumb 16.8736 16.5679
rfemur -15.8194 -7.64403 24.1263
rtibia 29.9278
rfoot -29.6072 5.1603
rtoes -19.6013
lfemur -48.2164 4.00922 -21.9094
ltibia 37.0624
lfoot -10.7299 10.671
ltoes -7.77925
278
root -0.124185 16.2301 14.352 17.3502 -0.316522 -0.696972
lowerback -15.574 0.844052 0.583865
upperback -4.86572 0.956895 1.48579
thorax 3.54774 0.480191 1.40498
lowerneck -3.74796 0.107974 -0.196737
upperneck 8.48506 0.331432 -1.99305
head 3.39304 0.0806895 -0.602735
rclavicle 1.84062e-014 6.75868e-015
rhumerus -16.599 0.902144 -84.3422
rradius 34.0967
rwrist -10.102
rhand -16.3223 -33.1472
rfingers 7.12502
rthumb 9.88922 -62.8949
lclavicle 1.84062e-014 6.75868e-015
lhumerus -64.0715 37.7479 41.8976
lradius 9.79665
lwrist -57.0183
lhand -8.38489 -12.2985
lfingers 7.12502
lthumb 17.5385 16.9304
rfemur -14.2629 -8.16638 23.6148
rtibia 28.8514
rfoot -30.1815 4.66924
rtoes -24.1365
lfemur -48.0827 4.12057 -22.0579
ltibia 33.7085
lfoot -10.5183 10.8082
ltoes -9.09972
279
root -0.116367 16.2244 14.5682 17.483 -0.589202 -0.945282
lowerback -15.6565 0.955101 0.711809
upperback -4.88443 1.08166 1.49751
thorax 3.57167 0.54173 1.36917
lowerneck -3.73626 0.0880893 -0.225672
upperneck 8.40564 0.300284 -1.93604
head 3.36254 0.0671631 -0.579855
rclavicle -1.0107e-014 -4.37326e-015
rhumerus -15.6949 1.78103 -84.2641
rradius 35.3345
rwrist -10.5255
rhand -16.5279 -32.565
rfingers 7.12502
rthumb 9.69082 -62.3221
lclavicle -1.0107e-014 -4.37326e-015
lhumerus -65.7463 37.301 40.223
lradius 9.8887
lwrist -57.0069
lhand -7.76341 -12.4549
lfingers 7.12502
lthumb 18.1365 16.7196
rfemur -13.2074 -8.37413 23.6007
rtibia 27.8604
rfoot -29.7179 7.2168
rtoes -18.9654
lfemur -48.088 4.08357 -21.6221
ltibia 30.3343
lfoot -10.4507 10.563
ltoes -8.17647
280
root -0.107215 16.2281 14.7767 17.6586 -0.463342 -1.36529
lowerback -15.6913 1.00571 1.07292
upperback -4.92861 1.08939 1.5821
thorax 3.54829 0.545725 1.25545
lowerneck -3.78059 0.0570872 -0.290511
upperneck 8.34827 0.257189 -1.87242
head 3.35029 0.0463979 -0.549289
rclavicle 9.89886e-015 3.97569e-015
rhumerus -14.7475 2.63177 -84.0842
rradius 36.5339
rwrist -11.0726
rhand -16.2386 -33.4549
rfingers 7.12502
rthumb 9.96996 -63.1988
lclavicle 9.89886e-015 3.97569e-015
lhumerus -67.3042 36.8135 38.6946
lradius 10.0073
lwrist -57.0552
lhand -7.13277 -12.5143
lfingers 7.12502
lthumb 18.7431 16.6027
rfemur -12.2914 -8.35174 23.8661
rtibia 26.9841
rfoot -28.5339 10.4327
rtoes -8.69873
lfemur -48.1633 4.01827 -21.0701
ltibia 27.0347
lfoot -9.90699 10.1802
ltoes -8.83458
281
root -0.0922575 16.2197 14.9878 17.9291 -0.632602 -1.8146
lowerback -15.7231 1.1735 1.48129
upperback -5.0727 1.24784 1.62852
thorax 3.41817 0.623636 1.10114
lowerneck -3.85922 0.0433122 -0.375101
upperneck 8.39361 0.233722 -1.72518
head 3.38007 0.0371128 -0.487739
rclavicle -7.56624e-015 5.96354e-015
rhumerus -13.8175 3.40924 -83.8805
rradius 37.467
rwrist -11.687
rhand -16.1897 -33.6683
rfingers 7.12502
rthumb 10.0172 -63.4099
lclavicle -7.56624e-015 5.96354e-015
lhumerus -67.1409 35.1514 40.1674
lradius 10.2387
lwrist -54.5898
lhand -7.73948 -13.0601
lfingers 7.12502
lthumb 18.1595 16.1122
rfemur -11.4437 -8.46151 24.089
rtibia 26.1406
rfoot -27.9355 12.0566
rtoes -4.70264
lfemur -48.3262 4.27798 -20.6474
ltibia 23.8852
lfoot -9.60959 9.54192
ltoes -8.96602
282
root -0.0809321 16.2072 15.2052 18.6495 -2.05943 -2.59936
lowerback -16.3607 1.79886 1.99602
upperback -5.21637 1.97011 1.66713
thorax 3.61424 0.979292 1.00221
lowerneck -3.77624 0.0659797 -0.398239
upperneck 8.21755 0.2518 -1.6032
head 3.30277 0.0516685 -0.442248
rclavicle -2.80069e-014 -6.75868e-015
rhumerus -12.839 3.98777 -83.6665
rradius 38.3698
rwrist -11.9639
rhand -16.044 -33.0548
rfingers 7.12502
rthumb 10.1577 -62.7895
lclavicle -2.80069e-014 -6.75868e-015
lhumerus -67.1321 33.7265 41.2669
lradius 10.3695
lwrist -52.3001
lhand -7.68913 -12.9331
lfingers 7.12502
lthumb 18.2079 16.2347
rfemur -11.1215 -8.1492 24.331
rtibia 25.343
rfoot -27.806 13.5083
rtoes -5.01721
lfemur -48.7653 5.14869 -19.7516
ltibia 20.9081
lfoot -10.0899 9.07046
ltoes -3.73309
